<svg width="389" height="620" viewBox="0 0 389 620" fill="none" xmlns="http://www.w3.org/2000/svg">
<rect width="389" height="620" fill="white" fill-opacity="0.25"/>
<rect x="24" y="93" width="341" height="434" rx="12" fill="white"/>
<rect x="24.5" y="93.5" width="340" height="433" rx="11.5" stroke="black" stroke-opacity="0.2"/>
<rect x="36" y="109" width="317" height="310" rx="12" fill="#F9F9F9" fill-opacity="0.8"/>
<rect x="151.5" y="245" width="38" height="38" rx="19" fill="#E2E2E2"/>
<path fill-rule="evenodd" clip-rule="evenodd" d="M168.278 273H172.722C175.843 273 177.404 273 178.525 272.265C179.009 271.948 179.425 271.539 179.751 271.061C180.5 269.961 180.5 268.428 180.5 265.364C180.5 262.3 180.5 260.767 179.751 259.667C179.425 259.189 179.009 258.78 178.525 258.463C177.805 257.99 176.903 257.821 175.522 257.761C174.863 257.761 174.296 257.271 174.167 256.636C174.068 256.171 173.812 255.754 173.442 255.456C173.071 255.158 172.609 254.997 172.134 255H168.866C167.878 255 167.027 255.685 166.833 256.636C166.704 257.271 166.137 257.761 165.478 257.761C164.098 257.821 163.196 257.991 162.475 258.463C161.992 258.78 161.575 259.189 161.25 259.667C160.5 260.767 160.5 262.299 160.5 265.364C160.5 268.429 160.5 269.96 161.249 271.061C161.573 271.537 161.989 271.946 162.475 272.265C163.596 273 165.157 273 168.278 273ZM170.5 261.273C168.199 261.273 166.333 263.104 166.333 265.363C166.333 267.622 168.2 269.456 170.5 269.456C172.8 269.456 174.667 267.624 174.667 265.365C174.667 263.106 172.8 261.273 170.5 261.273ZM170.5 262.909C169.12 262.909 168 264.008 168 265.364C168 266.719 169.12 267.818 170.5 267.818C171.88 267.818 173 266.719 173 265.364C173 264.009 171.88 262.909 170.5 262.909ZM175.222 262.091C175.222 261.639 175.595 261.273 176.056 261.273H177.166C177.626 261.273 178 261.639 178 262.091C177.998 262.31 177.909 262.519 177.753 262.672C177.597 262.826 177.386 262.911 177.167 262.909H176.056C175.948 262.91 175.84 262.89 175.739 262.849C175.639 262.809 175.547 262.749 175.47 262.673C175.392 262.597 175.33 262.506 175.288 262.407C175.245 262.307 175.223 262.2 175.222 262.091Z" fill="black"/>
<rect x="199.5" y="245" width="38" height="38" rx="19" fill="#E2E2E2"/>
<path d="M228.5 264C228.5 268.714 228.5 271.071 227.035 272.535C225.572 274 223.214 274 218.5 274C213.786 274 211.429 274 209.964 272.535C208.5 271.072 208.5 268.714 208.5 264C208.5 259.286 208.5 256.929 209.964 255.464C211.43 254 213.786 254 218.5 254" stroke="black" stroke-width="1.5" stroke-linecap="round"/>
<path d="M208.5 264.5L210.252 262.967C210.691 262.583 211.26 262.38 211.843 262.4C212.426 262.419 212.979 262.66 213.392 263.072L217.682 267.362C218.015 267.695 218.455 267.9 218.924 267.94C219.393 267.981 219.861 267.855 220.246 267.584L220.545 267.374C221.101 266.984 221.772 266.794 222.45 266.834C223.128 266.875 223.771 267.145 224.276 267.599L227.5 270.5M221.5 257.5H225M225 257.5H228.5M225 257.5V261M225 257.5V254" stroke="black" stroke-width="1.5" stroke-linecap="round"/>
<g filter="url(#filter1_i_36_1426)">
<rect x="40" y="435" width="309" height="40" rx="8" fill="#F9F9F9" fill-opacity="0.8"/>
<rect x="40.5" y="435.5" width="308" height="39" rx="7.5" stroke="#D1D5DB"/>
<path d="M53.8374 460H52.3232L55.7255 450.545H57.3736L60.7759 460H59.2617L56.5888 452.263H56.5149L53.8374 460ZM54.0913 456.298H59.0032V457.498H54.0913V456.298ZM64.5707 460.138C63.9982 460.138 63.4873 459.992 63.038 459.7C62.5917 459.404 62.2409 458.984 61.9854 458.44C61.7331 457.892 61.6069 457.235 61.6069 456.468C61.6069 455.702 61.7346 455.047 61.9901 454.502C62.2486 453.957 62.6025 453.54 63.0518 453.251C63.5012 452.961 64.0105 452.817 64.5799 452.817C65.02 452.817 65.3739 452.891 65.6417 453.038C65.9125 453.183 66.1218 453.352 66.2695 453.546C66.4203 453.74 66.5373 453.911 66.6204 454.059H66.7035V450.545H68.0838V460H66.7358V458.897H66.6204C66.5373 459.047 66.4173 459.22 66.2603 459.414C66.1064 459.608 65.8941 459.777 65.6232 459.922C65.3524 460.066 65.0015 460.138 64.5707 460.138ZM64.8754 458.961C65.2724 458.961 65.6078 458.857 65.8817 458.647C66.1587 458.435 66.368 458.141 66.5096 457.766C66.6542 457.39 66.7266 456.953 66.7266 456.455C66.7266 455.962 66.6558 455.531 66.5142 455.162C66.3726 454.793 66.1649 454.505 65.891 454.299C65.6171 454.092 65.2785 453.989 64.8754 453.989C64.4599 453.989 64.1136 454.097 63.8366 454.312C63.5597 454.528 63.3504 454.822 63.2088 455.194C63.0703 455.567 63.0011 455.987 63.0011 456.455C63.0011 456.929 63.0719 457.355 63.2134 457.733C63.355 458.112 63.5643 458.412 63.8413 458.634C64.1213 458.852 64.466 458.961 64.8754 458.961ZM72.7084 460.138C72.1359 460.138 71.625 459.992 71.1757 459.7C70.7294 459.404 70.3786 458.984 70.1231 458.44C69.8708 457.892 69.7446 457.235 69.7446 456.468C69.7446 455.702 69.8723 455.047 70.1278 454.502C70.3863 453.957 70.7402 453.54 71.1895 453.251C71.6389 452.961 72.1482 452.817 72.7176 452.817C73.1577 452.817 73.5116 452.891 73.7794 453.038C74.0502 453.183 74.2595 453.352 74.4072 453.546C74.558 453.74 74.675 453.911 74.7581 454.059H74.8412V450.545H76.2215V460H74.8735V458.897H74.7581C74.675 459.047 74.555 459.22 74.398 459.414C74.2441 459.608 74.0318 459.777 73.7609 459.922C73.4901 460.066 73.1392 460.138 72.7084 460.138ZM73.0131 458.961C73.4101 458.961 73.7455 458.857 74.0194 458.647C74.2964 458.435 74.5057 458.141 74.6473 457.766C74.7919 457.39 74.8643 456.953 74.8643 456.455C74.8643 455.962 74.7935 455.531 74.6519 455.162C74.5103 454.793 74.3026 454.505 74.0287 454.299C73.7548 454.092 73.4162 453.989 73.0131 453.989C72.5976 453.989 72.2513 454.097 71.9743 454.312C71.6974 454.528 71.4881 454.822 71.3465 455.194C71.208 455.567 71.1388 455.987 71.1388 456.455C71.1388 456.929 71.2095 457.355 71.3511 457.733C71.4927 458.112 71.702 458.412 71.979 458.634C72.259 458.852 72.6037 458.961 73.0131 458.961ZM83.6956 460.157C83.2462 460.157 82.84 460.074 82.4768 459.908C82.1137 459.738 81.8259 459.494 81.6135 459.174C81.4043 458.854 81.2996 458.461 81.2996 457.996C81.2996 457.596 81.3766 457.267 81.5305 457.009C81.6843 456.75 81.8921 456.545 82.1537 456.395C82.4153 456.244 82.7077 456.13 83.0308 456.053C83.354 455.976 83.6833 455.917 84.0187 455.877C84.4434 455.828 84.7881 455.788 85.0528 455.757C85.3175 455.724 85.5099 455.67 85.6299 455.596C85.7499 455.522 85.8099 455.402 85.8099 455.236V455.203C85.8099 454.8 85.6961 454.488 85.4683 454.266C85.2436 454.045 84.9082 453.934 84.4619 453.934C83.9972 453.934 83.6309 454.037 83.3632 454.243C83.0985 454.446 82.9154 454.673 82.8138 454.922L81.5166 454.626C81.6705 454.196 81.8952 453.848 82.1906 453.583C82.4891 453.315 82.8323 453.121 83.2201 453.001C83.6079 452.878 84.0157 452.817 84.4434 452.817C84.7266 452.817 85.0267 452.851 85.3437 452.918C85.6637 452.983 85.9623 453.103 86.2393 453.278C86.5193 453.454 86.7486 453.705 86.9271 454.031C87.1056 454.354 87.1949 454.774 87.1949 455.291V460H85.8469V459.031H85.7915C85.7022 459.209 85.5683 459.384 85.3898 459.557C85.2113 459.729 84.982 459.872 84.702 459.986C84.4219 460.1 84.0864 460.157 83.6956 460.157ZM83.9956 459.049C84.3773 459.049 84.7035 458.974 84.9743 458.823C85.2483 458.672 85.456 458.475 85.5976 458.232C85.7422 457.986 85.8145 457.723 85.8145 457.442V456.528C85.7653 456.578 85.6699 456.624 85.5283 456.667C85.3898 456.707 85.2313 456.742 85.0528 456.773C84.8743 456.801 84.7004 456.827 84.5312 456.852C84.3619 456.873 84.2203 456.892 84.1064 456.907C83.8387 456.941 83.594 456.998 83.3724 457.078C83.1539 457.158 82.9785 457.273 82.8461 457.424C82.7169 457.572 82.6523 457.769 82.6523 458.015C82.6523 458.357 82.7784 458.615 83.0308 458.79C83.2832 458.963 83.6048 459.049 83.9956 459.049ZM95.7838 452.909V454.017H91.9106V452.909H95.7838ZM92.9493 451.21H94.3296V457.918C94.3296 458.186 94.3696 458.387 94.4497 458.523C94.5297 458.655 94.6328 458.746 94.759 458.795C94.8882 458.841 95.0283 458.864 95.1791 458.864C95.2899 458.864 95.3868 458.857 95.4699 458.841C95.553 458.826 95.6176 458.814 95.6638 458.804L95.9131 459.945C95.8331 459.975 95.7192 460.006 95.5715 460.037C95.4237 460.071 95.2391 460.089 95.0175 460.092C94.6543 460.098 94.3158 460.034 94.0019 459.898C93.6879 459.763 93.434 459.554 93.2401 459.271C93.0463 458.987 92.9493 458.632 92.9493 458.204V451.21ZM98.8434 455.79V460H97.4631V450.545H98.8249V454.063H98.9126C99.0788 453.682 99.3327 453.378 99.6744 453.154C100.016 452.929 100.462 452.817 101.013 452.817C101.499 452.817 101.924 452.917 102.287 453.117C102.654 453.317 102.937 453.615 103.137 454.012C103.34 454.406 103.441 454.899 103.441 455.49V460H102.061V455.656C102.061 455.136 101.927 454.733 101.659 454.446C101.392 454.157 101.019 454.012 100.542 454.012C100.216 454.012 99.9237 454.082 99.6651 454.22C99.4097 454.359 99.2081 454.562 99.0604 454.83C98.9157 455.094 98.8434 455.414 98.8434 455.79ZM109.775 457.059V452.909H111.16V460H109.803V458.772H109.729C109.566 459.151 109.304 459.466 108.944 459.718C108.587 459.968 108.143 460.092 107.61 460.092C107.155 460.092 106.751 459.992 106.401 459.792C106.053 459.589 105.779 459.289 105.579 458.892C105.382 458.495 105.283 458.004 105.283 457.419V452.909H106.664V457.253C106.664 457.736 106.798 458.121 107.065 458.407C107.333 458.694 107.681 458.837 108.109 458.837C108.367 458.837 108.624 458.772 108.88 458.643C109.138 458.513 109.352 458.318 109.521 458.056C109.694 457.795 109.778 457.462 109.775 457.059ZM113.015 460V452.909H114.34V454.063H114.427C114.575 453.672 114.817 453.368 115.152 453.149C115.488 452.928 115.889 452.817 116.357 452.817C116.831 452.817 117.228 452.928 117.548 453.149C117.871 453.371 118.11 453.675 118.264 454.063H118.338C118.507 453.685 118.776 453.383 119.146 453.158C119.515 452.931 119.955 452.817 120.466 452.817C121.109 452.817 121.634 453.018 122.04 453.422C122.449 453.825 122.654 454.433 122.654 455.245V460H121.274V455.374C121.274 454.894 121.143 454.546 120.881 454.331C120.62 454.116 120.307 454.008 119.944 454.008C119.495 454.008 119.146 454.146 118.896 454.423C118.647 454.697 118.522 455.05 118.522 455.48V460H117.147V455.287C117.147 454.902 117.027 454.593 116.786 454.359C116.546 454.125 116.234 454.008 115.849 454.008C115.588 454.008 115.346 454.077 115.125 454.216C114.906 454.351 114.729 454.54 114.594 454.783C114.461 455.027 114.395 455.308 114.395 455.628V460H113.015ZM124.615 460V450.545H125.995V454.059H126.078C126.158 453.911 126.274 453.74 126.425 453.546C126.575 453.352 126.785 453.183 127.052 453.038C127.32 452.891 127.674 452.817 128.114 452.817C128.687 452.817 129.198 452.961 129.647 453.251C130.096 453.54 130.449 453.957 130.704 454.502C130.963 455.047 131.092 455.702 131.092 456.468C131.092 457.235 130.964 457.892 130.709 458.44C130.453 458.984 130.102 459.404 129.656 459.7C129.21 459.992 128.7 460.138 128.128 460.138C127.697 460.138 127.345 460.066 127.071 459.922C126.8 459.777 126.588 459.608 126.434 459.414C126.28 459.22 126.161 459.047 126.078 458.897H125.963V460H124.615ZM125.968 456.455C125.968 456.953 126.04 457.39 126.184 457.766C126.329 458.141 126.538 458.435 126.812 458.647C127.086 458.857 127.422 458.961 127.819 458.961C128.231 458.961 128.576 458.852 128.853 458.634C129.13 458.412 129.339 458.112 129.481 457.733C129.625 457.355 129.698 456.929 129.698 456.455C129.698 455.987 129.627 455.567 129.485 455.194C129.347 454.822 129.137 454.528 128.857 454.312C128.58 454.097 128.234 453.989 127.819 453.989C127.419 453.989 127.08 454.092 126.803 454.299C126.529 454.505 126.321 454.793 126.18 455.162C126.038 455.531 125.968 455.962 125.968 456.455ZM134.022 455.79V460H132.642V452.909H133.967V454.063H134.054C134.218 453.688 134.473 453.386 134.821 453.158C135.172 452.931 135.613 452.817 136.146 452.817C136.629 452.817 137.052 452.918 137.415 453.121C137.778 453.321 138.06 453.62 138.26 454.017C138.46 454.414 138.56 454.905 138.56 455.49V460H137.18V455.656C137.18 455.142 137.046 454.74 136.778 454.451C136.51 454.159 136.143 454.012 135.675 454.012C135.355 454.012 135.07 454.082 134.821 454.22C134.575 454.359 134.379 454.562 134.234 454.83C134.093 455.094 134.022 455.414 134.022 455.79ZM142.475 460.157C142.026 460.157 141.619 460.074 141.256 459.908C140.893 459.738 140.605 459.494 140.393 459.174C140.184 458.854 140.079 458.461 140.079 457.996C140.079 457.596 140.156 457.267 140.31 457.009C140.464 456.75 140.671 456.545 140.933 456.395C141.195 456.244 141.487 456.13 141.81 456.053C142.133 455.976 142.463 455.917 142.798 455.877C143.223 455.828 143.567 455.788 143.832 455.757C144.097 455.724 144.289 455.67 144.409 455.596C144.529 455.522 144.589 455.402 144.589 455.236V455.203C144.589 454.8 144.475 454.488 144.248 454.266C144.023 454.045 143.687 453.934 143.241 453.934C142.776 453.934 142.41 454.037 142.142 454.243C141.878 454.446 141.695 454.673 141.593 454.922L140.296 454.626C140.45 454.196 140.674 453.848 140.97 453.583C141.268 453.315 141.612 453.121 141.999 453.001C142.387 452.878 142.795 452.817 143.223 452.817C143.506 452.817 143.806 452.851 144.123 452.918C144.443 452.983 144.742 453.103 145.019 453.278C145.299 453.454 145.528 453.705 145.706 454.031C145.885 454.354 145.974 454.774 145.974 455.291V460H144.626V459.031H144.571C144.482 459.209 144.348 459.384 144.169 459.557C143.991 459.729 143.761 459.872 143.481 459.986C143.201 460.1 142.866 460.157 142.475 460.157ZM142.775 459.049C143.157 459.049 143.483 458.974 143.754 458.823C144.028 458.672 144.235 458.475 144.377 458.232C144.522 457.986 144.594 457.723 144.594 457.442V456.528C144.545 456.578 144.449 456.624 144.308 456.667C144.169 456.707 144.011 456.742 143.832 456.773C143.654 456.801 143.48 456.827 143.31 456.852C143.141 456.873 143 456.892 142.886 456.907C142.618 456.941 142.373 456.998 142.152 457.078C141.933 457.158 141.758 457.273 141.625 457.424C141.496 457.572 141.432 457.769 141.432 458.015C141.432 458.357 141.558 458.615 141.81 458.79C142.062 458.963 142.384 459.049 142.775 459.049ZM147.813 460V452.909H149.193V460H147.813ZM148.51 451.815C148.27 451.815 148.064 451.735 147.891 451.575C147.722 451.412 147.637 451.218 147.637 450.993C147.637 450.766 147.722 450.572 147.891 450.412C148.064 450.248 148.27 450.167 148.51 450.167C148.75 450.167 148.954 450.248 149.124 450.412C149.296 450.572 149.382 450.766 149.382 450.993C149.382 451.218 149.296 451.412 149.124 451.575C148.954 451.735 148.75 451.815 148.51 451.815ZM152.43 450.545V460H151.05V450.545H152.43ZM161.102 452.909V454.017H157.095V452.909H161.102ZM158.194 460V452.087C158.194 451.644 158.291 451.276 158.485 450.984C158.679 450.689 158.936 450.469 159.256 450.324C159.576 450.176 159.924 450.102 160.299 450.102C160.576 450.102 160.813 450.125 161.01 450.172C161.207 450.215 161.353 450.255 161.449 450.292L161.125 451.409C161.061 451.39 160.978 451.369 160.876 451.344C160.775 451.316 160.651 451.303 160.507 451.303C160.171 451.303 159.931 451.386 159.787 451.552C159.645 451.718 159.574 451.958 159.574 452.272V460H158.194ZM165.234 460.143C164.569 460.143 163.989 459.991 163.494 459.686C162.998 459.381 162.613 458.955 162.34 458.407C162.066 457.859 161.929 457.219 161.929 456.487C161.929 455.751 162.066 455.108 162.34 454.557C162.613 454.006 162.998 453.578 163.494 453.274C163.989 452.969 164.569 452.817 165.234 452.817C165.899 452.817 166.479 452.969 166.975 453.274C167.47 453.578 167.855 454.006 168.129 454.557C168.403 455.108 168.54 455.751 168.54 456.487C168.54 457.219 168.403 457.859 168.129 458.407C167.855 458.955 167.47 459.381 166.975 459.686C166.479 459.991 165.899 460.143 165.234 460.143ZM165.239 458.984C165.67 458.984 166.027 458.871 166.31 458.643C166.593 458.415 166.802 458.112 166.938 457.733C167.076 457.355 167.145 456.938 167.145 456.482C167.145 456.03 167.076 455.614 166.938 455.236C166.802 454.854 166.593 454.548 166.31 454.317C166.027 454.086 165.67 453.971 165.239 453.971C164.805 453.971 164.445 454.086 164.158 454.317C163.875 454.548 163.665 454.854 163.526 455.236C163.391 455.614 163.323 456.03 163.323 456.482C163.323 456.938 163.391 457.355 163.526 457.733C163.665 458.112 163.875 458.415 164.158 458.643C164.445 458.871 164.805 458.984 165.239 458.984ZM170.08 460V452.909H171.414V454.036H171.488C171.618 453.654 171.845 453.354 172.172 453.135C172.501 452.914 172.873 452.803 173.289 452.803C173.375 452.803 173.476 452.806 173.593 452.812C173.713 452.818 173.807 452.826 173.875 452.835V454.156C173.82 454.14 173.721 454.123 173.58 454.105C173.438 454.083 173.296 454.072 173.155 454.072C172.829 454.072 172.538 454.142 172.282 454.28C172.03 454.416 171.83 454.605 171.682 454.848C171.534 455.088 171.461 455.362 171.461 455.67V460H170.08ZM178.51 460V452.909H179.89V460H178.51ZM179.207 451.815C178.967 451.815 178.761 451.735 178.588 451.575C178.419 451.412 178.335 451.218 178.335 450.993C178.335 450.766 178.419 450.572 178.588 450.412C178.761 450.248 178.967 450.167 179.207 450.167C179.447 450.167 179.652 450.248 179.821 450.412C179.993 450.572 180.08 450.766 180.08 450.993C180.08 451.218 179.993 451.412 179.821 451.575C179.652 451.735 179.447 451.815 179.207 451.815ZM181.747 460V452.909H183.072V454.063H183.16C183.308 453.672 183.549 453.368 183.885 453.149C184.22 452.928 184.622 452.817 185.09 452.817C185.564 452.817 185.961 452.928 186.281 453.149C186.604 453.371 186.842 453.675 186.996 454.063H187.07C187.239 453.685 187.509 453.383 187.878 453.158C188.247 452.931 188.687 452.817 189.198 452.817C189.841 452.817 190.366 453.018 190.772 453.422C191.182 453.825 191.386 454.433 191.386 455.245V460H190.006V455.374C190.006 454.894 189.875 454.546 189.614 454.331C189.352 454.116 189.04 454.008 188.677 454.008C188.227 454.008 187.878 454.146 187.629 454.423C187.379 454.697 187.255 455.05 187.255 455.48V460H185.879V455.287C185.879 454.902 185.759 454.593 185.519 454.359C185.279 454.125 184.966 454.008 184.582 454.008C184.32 454.008 184.079 454.077 183.857 454.216C183.638 454.351 183.461 454.54 183.326 454.783C183.194 455.027 183.128 455.308 183.128 455.628V460H181.747ZM195.3 460.157C194.851 460.157 194.444 460.074 194.081 459.908C193.718 459.738 193.43 459.494 193.218 459.174C193.009 458.854 192.904 458.461 192.904 457.996C192.904 457.596 192.981 457.267 193.135 457.009C193.289 456.75 193.497 456.545 193.758 456.395C194.02 456.244 194.312 456.13 194.635 456.053C194.958 455.976 195.288 455.917 195.623 455.877C196.048 455.828 196.393 455.788 196.657 455.757C196.922 455.724 197.114 455.67 197.234 455.596C197.354 455.522 197.414 455.402 197.414 455.236V455.203C197.414 454.8 197.301 454.488 197.073 454.266C196.848 454.045 196.513 453.934 196.066 453.934C195.602 453.934 195.235 454.037 194.968 454.243C194.703 454.446 194.52 454.673 194.418 454.922L193.121 454.626C193.275 454.196 193.5 453.848 193.795 453.583C194.094 453.315 194.437 453.121 194.825 453.001C195.212 452.878 195.62 452.817 196.048 452.817C196.331 452.817 196.631 452.851 196.948 452.918C197.268 452.983 197.567 453.103 197.844 453.278C198.124 453.454 198.353 453.705 198.532 454.031C198.71 454.354 198.799 454.774 198.799 455.291V460H197.451V459.031H197.396C197.307 459.209 197.173 459.384 196.994 459.557C196.816 459.729 196.587 459.872 196.306 459.986C196.026 460.1 195.691 460.157 195.3 460.157ZM195.6 459.049C195.982 459.049 196.308 458.974 196.579 458.823C196.853 458.672 197.06 458.475 197.202 458.232C197.347 457.986 197.419 457.723 197.419 457.442V456.528C197.37 456.578 197.274 456.624 197.133 456.667C196.994 456.707 196.836 456.742 196.657 456.773C196.479 456.801 196.305 456.827 196.136 456.852C195.966 456.873 195.825 456.892 195.711 456.907C195.443 456.941 195.199 456.998 194.977 457.078C194.758 457.158 194.583 457.273 194.451 457.424C194.321 457.572 194.257 457.769 194.257 458.015C194.257 458.357 194.383 458.615 194.635 458.79C194.888 458.963 195.209 459.049 195.6 459.049ZM203.611 462.807C203.048 462.807 202.563 462.733 202.157 462.585C201.754 462.438 201.424 462.242 201.169 461.999C200.913 461.756 200.723 461.49 200.596 461.2L201.783 460.711C201.866 460.846 201.977 460.989 202.115 461.14C202.257 461.294 202.448 461.425 202.688 461.533C202.931 461.64 203.243 461.694 203.625 461.694C204.148 461.694 204.58 461.567 204.922 461.311C205.264 461.059 205.434 460.656 205.434 460.102V458.707H205.347C205.264 458.858 205.144 459.026 204.987 459.211C204.833 459.395 204.62 459.555 204.35 459.691C204.079 459.826 203.726 459.894 203.292 459.894C202.732 459.894 202.227 459.763 201.778 459.501C201.332 459.237 200.978 458.847 200.716 458.333C200.458 457.816 200.329 457.181 200.329 456.427C200.329 455.673 200.456 455.027 200.712 454.488C200.97 453.949 201.324 453.537 201.774 453.251C202.223 452.961 202.732 452.817 203.302 452.817C203.742 452.817 204.097 452.891 204.368 453.038C204.639 453.183 204.85 453.352 205 453.546C205.154 453.74 205.273 453.911 205.356 454.059H205.457V452.909H206.81V460.157C206.81 460.766 206.669 461.266 206.385 461.657C206.102 462.048 205.719 462.337 205.236 462.525C204.756 462.713 204.214 462.807 203.611 462.807ZM203.597 458.749C203.994 458.749 204.33 458.657 204.603 458.472C204.88 458.284 205.09 458.016 205.231 457.669C205.376 457.318 205.448 456.898 205.448 456.408C205.448 455.931 205.377 455.511 205.236 455.148C205.094 454.785 204.887 454.502 204.613 454.299C204.339 454.092 204 453.989 203.597 453.989C203.182 453.989 202.835 454.097 202.558 454.312C202.281 454.525 202.072 454.814 201.93 455.18C201.792 455.547 201.723 455.956 201.723 456.408C201.723 456.873 201.794 457.281 201.935 457.632C202.077 457.983 202.286 458.257 202.563 458.453C202.843 458.65 203.188 458.749 203.597 458.749ZM211.717 460.143C211.019 460.143 210.417 459.994 209.912 459.695C209.411 459.394 209.023 458.971 208.749 458.426C208.478 457.878 208.343 457.236 208.343 456.501C208.343 455.774 208.478 455.134 208.749 454.58C209.023 454.026 209.405 453.594 209.894 453.283C210.386 452.972 210.962 452.817 211.62 452.817C212.021 452.817 212.408 452.883 212.784 453.015C213.159 453.148 213.496 453.355 213.795 453.638C214.093 453.922 214.329 454.289 214.501 454.742C214.674 455.191 214.76 455.737 214.76 456.381V456.87H209.123V455.836H213.407C213.407 455.473 213.333 455.151 213.185 454.871C213.038 454.588 212.83 454.365 212.562 454.202C212.298 454.039 211.987 453.957 211.63 453.957C211.242 453.957 210.903 454.052 210.614 454.243C210.328 454.431 210.106 454.677 209.949 454.982C209.795 455.283 209.718 455.611 209.718 455.965V456.773C209.718 457.247 209.802 457.65 209.968 457.983C210.137 458.315 210.372 458.569 210.674 458.744C210.976 458.917 211.328 459.003 211.731 459.003C211.993 459.003 212.231 458.966 212.447 458.892C212.662 458.815 212.848 458.701 213.005 458.55C213.162 458.4 213.282 458.213 213.366 457.992L214.672 458.227C214.567 458.612 214.38 458.949 214.109 459.238C213.841 459.525 213.504 459.748 213.098 459.908C212.695 460.065 212.234 460.143 211.717 460.143ZM221.694 455.864L221.781 453.915L220.138 454.973L219.635 454.096L221.38 453.205L219.635 452.314L220.138 451.436L221.781 452.494L221.694 450.545H222.695L222.608 452.494L224.251 451.436L224.754 452.314L223.009 453.205L224.754 454.096L224.251 454.973L222.608 453.915L222.695 455.864H221.694Z" fill="#9CA3AF"/>
</g>
<g filter="url(#filter2_di_36_1426)">
<rect x="164.5" y="491" width="60" height="20" rx="4" fill="#22C55E"/>
<rect x="165" y="491.5" width="59" height="19" rx="3.5" stroke="#16A34A"/>
<path d="M186.25 498.565C186.205 498.162 186.017 497.849 185.688 497.628C185.358 497.403 184.943 497.291 184.443 497.291C184.085 497.291 183.776 497.348 183.514 497.462C183.253 497.572 183.05 497.726 182.905 497.922C182.763 498.115 182.692 498.335 182.692 498.582C182.692 498.79 182.74 498.969 182.837 499.119C182.936 499.27 183.065 499.396 183.224 499.499C183.386 499.598 183.56 499.682 183.744 499.75C183.929 499.815 184.107 499.869 184.277 499.912L185.129 500.134C185.408 500.202 185.693 500.294 185.986 500.411C186.278 500.527 186.55 500.68 186.8 500.871C187.05 501.061 187.251 501.297 187.405 501.578C187.561 501.859 187.639 502.196 187.639 502.588C187.639 503.082 187.511 503.521 187.256 503.905C187.003 504.288 186.635 504.591 186.152 504.812C185.672 505.034 185.091 505.145 184.409 505.145C183.756 505.145 183.19 505.041 182.713 504.834C182.236 504.626 181.862 504.332 181.592 503.952C181.322 503.568 181.173 503.114 181.145 502.588H182.466C182.491 502.903 182.594 503.166 182.773 503.376C182.955 503.584 183.186 503.739 183.467 503.841C183.751 503.94 184.062 503.99 184.401 503.99C184.773 503.99 185.104 503.932 185.393 503.815C185.686 503.696 185.916 503.531 186.084 503.321C186.251 503.108 186.335 502.859 186.335 502.575C186.335 502.317 186.261 502.105 186.114 501.94C185.969 501.776 185.771 501.639 185.521 501.531C185.274 501.423 184.994 501.328 184.682 501.246L183.651 500.964C182.952 500.774 182.398 500.494 181.989 500.125C181.582 499.756 181.379 499.267 181.379 498.659C181.379 498.156 181.516 497.717 181.788 497.342C182.061 496.967 182.43 496.676 182.896 496.469C183.362 496.259 183.888 496.153 184.473 496.153C185.064 496.153 185.585 496.257 186.037 496.464C186.491 496.672 186.849 496.957 187.111 497.321C187.372 497.682 187.509 498.097 187.52 498.565H186.25ZM191.015 505.145C190.6 505.145 190.225 505.068 189.89 504.915C189.555 504.759 189.289 504.533 189.093 504.237C188.9 503.942 188.804 503.58 188.804 503.151C188.804 502.781 188.875 502.477 189.017 502.239C189.159 502 189.35 501.811 189.592 501.672C189.833 501.533 190.103 501.428 190.402 501.357C190.7 501.286 191.004 501.232 191.314 501.195C191.706 501.149 192.024 501.112 192.268 501.084C192.512 501.053 192.69 501.003 192.801 500.935C192.912 500.866 192.967 500.756 192.967 500.602V500.572C192.967 500.2 192.862 499.912 192.652 499.707C192.444 499.503 192.135 499.401 191.723 499.401C191.294 499.401 190.956 499.496 190.708 499.686C190.464 499.874 190.295 500.082 190.201 500.312L189.004 500.04C189.146 499.642 189.353 499.321 189.626 499.077C189.902 498.83 190.218 498.651 190.576 498.54C190.934 498.426 191.311 498.369 191.706 498.369C191.967 498.369 192.244 498.401 192.537 498.463C192.832 498.523 193.108 498.634 193.363 498.795C193.622 498.957 193.833 499.189 193.998 499.49C194.163 499.788 194.245 500.176 194.245 500.653V505H193.001V504.105H192.95C192.868 504.27 192.744 504.432 192.579 504.591C192.414 504.75 192.203 504.882 191.944 504.987C191.686 505.092 191.376 505.145 191.015 505.145ZM191.292 504.122C191.645 504.122 191.946 504.053 192.196 503.913C192.449 503.774 192.64 503.592 192.771 503.368C192.904 503.141 192.971 502.898 192.971 502.639V501.795C192.926 501.841 192.838 501.884 192.707 501.923C192.579 501.96 192.433 501.993 192.268 502.021C192.103 502.047 191.943 502.071 191.787 502.094C191.63 502.114 191.5 502.131 191.395 502.145C191.147 502.176 190.922 502.229 190.717 502.303C190.515 502.376 190.353 502.483 190.231 502.622C190.112 502.759 190.052 502.94 190.052 503.168C190.052 503.483 190.169 503.722 190.402 503.884C190.635 504.043 190.931 504.122 191.292 504.122ZM201.308 498.455L198.934 505H197.57L195.192 498.455H196.56L198.218 503.491H198.286L199.94 498.455H201.308ZM205.103 505.132C204.458 505.132 203.903 504.994 203.437 504.719C202.974 504.44 202.616 504.05 202.363 503.547C202.113 503.041 201.988 502.449 201.988 501.77C201.988 501.099 202.113 500.509 202.363 499.997C202.616 499.486 202.968 499.087 203.42 498.8C203.875 498.513 204.406 498.369 205.014 498.369C205.383 498.369 205.741 498.43 206.088 498.553C206.434 498.675 206.745 498.866 207.021 499.128C207.297 499.389 207.514 499.729 207.673 500.146C207.832 500.561 207.912 501.065 207.912 501.659V502.111H202.708V501.156H206.663C206.663 500.821 206.595 500.524 206.458 500.266C206.322 500.004 206.13 499.798 205.883 499.648C205.639 499.497 205.352 499.422 205.022 499.422C204.664 499.422 204.352 499.51 204.085 499.686C203.821 499.859 203.616 500.087 203.471 500.368C203.329 500.646 203.258 500.949 203.258 501.276V502.021C203.258 502.459 203.335 502.831 203.488 503.138C203.645 503.445 203.862 503.679 204.14 503.841C204.419 504 204.744 504.08 205.116 504.08C205.358 504.08 205.578 504.045 205.777 503.977C205.975 503.906 206.147 503.801 206.292 503.662C206.437 503.523 206.548 503.351 206.625 503.146L207.831 503.364C207.734 503.719 207.561 504.03 207.311 504.297C207.064 504.561 206.752 504.767 206.377 504.915C206.005 505.06 205.581 505.132 205.103 505.132Z" fill="white"/>
</g>
<defs>
<filter id="filter1_i_36_1426" x="40" y="435" width="309" height="40" filterUnits="userSpaceOnUse" color-interpolation-filters="sRGB">
<feFlood flood-opacity="0" result="BackgroundImageFix"/>
<feBlend mode="normal" in="SourceGraphic" in2="BackgroundImageFix" result="shape"/>
<feColorMatrix in="SourceAlpha" type="matrix" values="0 0 0 0 0 0 0 0 0 0 0 0 0 0 0 0 0 0 127 0" result="hardAlpha"/>
<feOffset dy="-1"/>
<feComposite in2="hardAlpha" operator="arithmetic" k2="-1" k3="1"/>
<feColorMatrix type="matrix" values="0 0 0 0 1 0 0 0 0 1 0 0 0 0 1 0 0 0 0.18 0"/>
<feBlend mode="normal" in2="shape" result="effect1_innerShadow_36_1426"/>
</filter>
<filter id="filter2_di_36_1426" x="161.5" y="489" width="68" height="28" filterUnits="userSpaceOnUse" color-interpolation-filters="sRGB">
<feFlood flood-opacity="0" result="BackgroundImageFix"/>
<feColorMatrix in="SourceAlpha" type="matrix" values="0 0 0 0 0 0 0 0 0 0 0 0 0 0 0 0 0 0 127 0" result="hardAlpha"/>
<feOffset dx="1" dy="2"/>
<feGaussianBlur stdDeviation="2"/>
<feComposite in2="hardAlpha" operator="out"/>
<feColorMatrix type="matrix" values="0 0 0 0 0 0 0 0 0 0 0 0 0 0 0 0 0 0 0.25 0"/>
<feBlend mode="normal" in2="BackgroundImageFix" result="effect1_dropShadow_36_1426"/>
<feBlend mode="normal" in="SourceGraphic" in2="effect1_dropShadow_36_1426" result="shape"/>
<feColorMatrix in="SourceAlpha" type="matrix" values="0 0 0 0 0 0 0 0 0 0 0 0 0 0 0 0 0 0 127 0" result="hardAlpha"/>
<feOffset dx="-0.5" dy="-1.5"/>
<feComposite in2="hardAlpha" operator="arithmetic" k2="-1" k3="1"/>
<feColorMatrix type="matrix" values="0 0 0 0 0 0 0 0 0 0 0 0 0 0 0 0 0 0 0.12 0"/>
<feBlend mode="normal" in2="shape" result="effect2_innerShadow_36_1426"/>
</filter>
</defs>
</svg>
